<?xml version="1.0" encoding="UTF-8"?>
<svg id="Layer_2" data-name="Layer 2" xmlns="http://www.w3.org/2000/svg" viewBox="0 0 95.38 131.08">
  <defs>
    <style>
      .cls-1 {
        fill: #fff;
        stroke-width: 0px;
      }
    </style>
  </defs>
  <g id="Objects">
    <path class="cls-1" d="M89.71,63.46c-.95,0-1.9.25-2.74.71-7.52,4.16-13.89,10.21-18.42,17.49-.31.49-.93.73-1.48.57-.56-.16-.96-.68-.96-1.27V17.47c0-3.12-2.54-5.66-5.66-5.66s-5.66,2.54-5.66,5.66v50.32c0,.73-.59,1.32-1.32,1.32h-4.32c-.73,0-1.32-.59-1.32-1.32V5.54c0-3.05-2.48-5.54-5.54-5.54h-.24c-3.05,0-5.54,2.48-5.54,5.54v62.25c0,.73-.59,1.32-1.32,1.32h-4.32c-.73,0-1.32-.59-1.32-1.32V14.83c0-2.85-2.31-5.16-5.16-5.16h-1c-2.85,0-5.16,2.31-5.16,5.16v52.96c0,.73-.59,1.32-1.32,1.32h-4.32c-.73,0-1.32-.59-1.32-1.32V23.43c0-2.87-2.33-5.2-5.2-5.2h-.92c-2.87,0-5.2,2.33-5.2,5.2v77.73c0,4.76,1.32,9.41,3.82,13.45.04.07.08.14.11.21,3.88,9.87,13.23,16.25,23.83,16.25h10.53c13.12,0,24.93-8.77,28.72-21.32.02-.07.05-.14.08-.2l9.18-18.52c3.57-7.2,9.17-13.07,16.2-16.96,1.32-.73,2.28-1.93,2.7-3.39.42-1.45.24-2.98-.49-4.3-1-1.8-2.9-2.92-4.96-2.92Z"/>
  </g>
</svg>