<?xml version="1.0" encoding="UTF-8"?>
<svg id="Layer_2" data-name="Layer 2" xmlns="http://www.w3.org/2000/svg" viewBox="0 0 76.31 84.82">
  <defs>
    <style>
      .cls-1 {
        fill: #fff;
        stroke-width: 0px;
      }
    </style>
  </defs>
  <g id="Objects">
    <g>
      <path class="cls-1" d="M24.28,46.25c-.38,1.54-1.18,4.32-2.3,5.54.74.71,4,3.62,4.53,4,5.48,3.93,7.78,9.44,6.84,16.36-.72,5.3-3.23,10.04-4.46,12.11,1.97.37,3.99.56,5.99.56h11.27c15.75,0,30.12-13.44,30.16-28.19l-3.77-35.22v16.48c0,4.49-3.38,8.23-7.7,8.51-2.31.15-4.51-.64-6.19-2.21-.95-.89-1.67-1.99-2.11-3.2v.44c0,4.49-3.38,8.23-7.7,8.51-2.31.15-4.51-.64-6.19-2.21-.96-.9-1.69-2.02-2.13-3.25-.26,4.23-3.52,7.68-7.63,7.98-4.05.29-7.64-2.37-8.6-6.2Z"/>
      <path class="cls-1" d="M8.02,17.18l-2.84,18.83c.9-.6,1.85-1.09,2.84-1.48v-17.35Z"/>
      <path class="cls-1" d="M64.29,44.85c3.69,0,6.69-3,6.69-6.69V6.69c0-3.69-3-6.69-6.69-6.69s-6.69,3-6.69,6.69v31.48c0,3.69,3,6.69,6.69,6.69Z"/>
      <path class="cls-1" d="M48.29,48.38c3.69,0,6.69-3,6.69-6.69V6.69c0-3.69-3-6.69-6.69-6.69s-6.69,3-6.69,6.69v35.01c0,3.69,3,6.69,6.69,6.69Z"/>
      <path class="cls-1" d="M37.04,38.14c0,1.92-.73,3.73-2.08,5.09-1.35,1.36-3.16,2.11-5.07,2.11l-4.2-.06c.51,3.23,3.3,5.63,6.6,5.63,3.69,0,6.69-3,6.69-6.69V6.69c0-3.69-3-6.69-6.69-6.69s-6.69,3-6.69,6.69v26.86h6.8c2.55-.01,4.62,2.06,4.64,4.6Z"/>
      <path class="cls-1" d="M21.25,50.31c1.08-1.2,1.68-2.73,1.71-4.35-1.38.94-2.07,2.72-1.71,4.35Z"/>
      <path class="cls-1" d="M22.96,33.55V6.69c0-3.69-3-6.69-6.69-6.69s-6.69,3-6.69,6.69v27.35c1.19-.31,2.4-.47,3.62-.47l9.75-.02Z"/>
      <path class="cls-1" d="M26.8,84.17c.12,0,.22,0,.32,0,1.19-1.89,6.09-10.3,4.58-18.02,0,0,0-.02,0-.03-.38-4.83-10.07-12.4-10.17-12.48-1.8-1.59-2.41-4.04-1.57-6.27.84-2.23,2.92-3.67,5.3-3.67l4.62.07c1.5,0,2.9-.59,3.96-1.65,1.06-1.06,1.64-2.47,1.63-3.97,0-1.68-1.38-3.05-3.06-3.05l-19.2.03c-6.28.01-11.73,4.64-12.67,10.77-1.09,7.13-1.08,17.31,5.18,25.29,2.39,3.04,10.97,12.98,21.07,12.98Z"/>
    </g>
  </g>
</svg>