<?xml version="1.0" encoding="UTF-8"?>
<svg id="Layer_2" data-name="Layer 2" xmlns="http://www.w3.org/2000/svg" viewBox="0 0 80.07 126.93">
  <defs>
    <style>
      .cls-1 {
        fill: #fff;
        stroke-width: 0px;
      }
    </style>
  </defs>
  <g id="Objects">
    <g>
      <path class="cls-1" d="M59.31,84.46c-3.13,0-5.89-1.88-7.09-4.66v4.21c0,4.26-3.46,7.72-7.72,7.72-3.09,0-5.91-1.89-7.1-4.73-.83.32-1.7.48-2.59.48l-4.62-.07c-2.11,0-3.54,1.53-4.03,3.04-.4,1.27-.27,3.02,1.3,4.13.78.8,1.62,1.57,2.51,2.38,6.13,5.62,13.75,12.61,3.8,29.53,1.74.29,3.5.43,5.21.43h11.27c11.39,0,21.44-6.85,25.6-17.46.03-.07.06-.14.1-.21,2.68-4.32,4.1-9.3,4.11-14.4-.05-.47-1.29-12.2-4.26-24.26-2.53-10.29-5.51-17.79-8.88-22.33.07.41.1.82.1,1.23v27.24c0,4.26-3.46,7.72-7.72,7.72Z"/>
      <path class="cls-1" d="M9.07,54.52v20.85s0,.14,0,.14l-.45,3.8c2.64-2.32,6-3.6,9.53-3.6l18.71-.03v-.9c.04-6.27.09-13.36.13-19.09v-7.4s5.88-39.62,5.88-39.62c.32-2.01-.1-4.01-1.17-5.64-1.06-1.62-2.65-2.67-4.46-2.95-3.75-.59-7.34,2.3-7.99,6.45l-5.98,43.52c-.05.35-.33.61-.68.62,0,0-.02,0-.03,0-.34,0-.62-.23-.7-.56L13.72,13.46c-.82-3.5-3.79-5.91-7-5.91-.48,0-.97.05-1.46.17-1.8.42-3.31,1.58-4.27,3.25C.03,12.66-.24,14.66.22,16.62l8.85,37.9Z"/>
      <path class="cls-1" d="M38.61,49.89c-.06,5.56-.15,19.82-.19,25.92,2.06.49,3.53,2.34,3.54,4.47h0s0,0,0,0h0s0,0,0,0c.01,2.41-1.17,4.63-3.18,5.98,1.04,2.63,3.69,4.21,6.52,3.84,3.05-.39,5.34-3.12,5.34-6.34v-5.64c0-.68.51-1.25,1.2-1.31.67-.06,1.33.44,1.43,1.13.23,1.65.87,2.85,1.9,3.57,2.27,1.57,4.81,1.81,6.98.68,2.04-1.07,3.3-3.16,3.3-5.45v-26.99c0-3.15-2.23-5.87-5.19-6.32-1.68-.26-3.35.16-4.69,1.18-1.34,1.02-2.18,2.5-2.38,4.17-.08.66-.64,1.16-1.3,1.16-.64,0-1.18-.45-1.3-1.06-.38-1.96-1.19-3.37-2.39-4.2l-.15-.1c-1.83-1.19-4.11-1.27-6.08-.22-2.06,1.1-3.35,3.22-3.37,5.53Z"/>
      <path class="cls-1" d="M30.19,85.85h.09s4.53.07,4.53.07c1.49,0,2.9-.59,3.96-1.65,1.06-1.06,1.63-2.47,1.63-3.97,0-1.68-1.38-3.05-3.06-3.05l-19.2.03c-6.28.01-11.73,4.64-12.67,10.77-1.09,7.13-1.08,17.31,5.18,25.29,2.39,3.05,10.97,12.98,21.07,12.98.12,0,.22,0,.31,0,1.19-1.89,6.09-10.29,4.58-18.02-.76-3.86-10.09-12.43-10.19-12.52-1.78-1.57-2.39-4.03-1.55-6.26.84-2.23,2.92-3.67,5.3-3.67Z"/>
    </g>
  </g>
</svg>